<?xml version="1.0" encoding="UTF-8"?>
<!--Generator: Apple Native CoreSVG 175.5-->
<!DOCTYPE svg
PUBLIC "-//W3C//DTD SVG 1.1//EN"
       "http://www.w3.org/Graphics/SVG/1.1/DTD/svg11.dtd">
<svg version="1.1" xmlns="http://www.w3.org/2000/svg" xmlns:xlink="http://www.w3.org/1999/xlink" width="18.4434" height="11.874">
 <g>
  <rect height="11.874" opacity="0" width="18.4434" x="0" y="0"/>
  <path d="M0.717773 11.8672L2.36523 11.8672C2.7959 11.8672 3.08301 11.5664 3.08301 11.1221L3.08301 8.05273C3.08301 7.6084 2.7959 7.31445 2.36523 7.31445L0.717773 7.31445C0.287109 7.31445 0 7.6084 0 8.05273L0 11.1221C0 11.5664 0.287109 11.8672 0.717773 11.8672ZM5.83789 11.8672L7.48535 11.8672C7.91602 11.8672 8.20312 11.5664 8.20312 11.1221L8.20312 5.91992C8.20312 5.47559 7.91602 5.1748 7.48535 5.1748L5.83789 5.1748C5.40723 5.1748 5.12012 5.47559 5.12012 5.91992L5.12012 11.1221C5.12012 11.5664 5.40723 11.8672 5.83789 11.8672ZM10.958 11.8672L12.6055 11.8672C13.0293 11.8672 13.3232 11.5664 13.3232 11.1221L13.3232 3.44531C13.3232 3.00098 13.0293 2.7002 12.6055 2.7002L10.958 2.7002C10.5273 2.7002 10.2402 3.00098 10.2402 3.44531L10.2402 11.1221C10.2402 11.5664 10.5273 11.8672 10.958 11.8672ZM16.0713 11.8672L17.7324 11.8672C18.1562 11.8672 18.4434 11.5664 18.4434 11.1221L18.4434 0.745117C18.4434 0.300781 18.1562 0 17.7324 0L16.0713 0C15.6475 0 15.3535 0.300781 15.3535 0.745117L15.3535 11.1221C15.3535 11.5664 15.6475 11.8672 16.0713 11.8672Z" fill="#000000"/>
 </g>
</svg>
