<?xml version="1.0" encoding="UTF-8"?>
<!--Generator: Apple Native CoreSVG 175.5-->
<!DOCTYPE svg
PUBLIC "-//W3C//DTD SVG 1.1//EN"
       "http://www.w3.org/Graphics/SVG/1.1/DTD/svg11.dtd">
<svg version="1.1" xmlns="http://www.w3.org/2000/svg" xmlns:xlink="http://www.w3.org/1999/xlink" width="7.44531" height="7.45703">
 <g>
  <rect height="7.45703" opacity="0" width="7.44531" x="0" y="0"/>
  <path d="M0.359375 3.16016C0.566406 3.16016 0.714844 3.00391 0.714844 2.79688L0.714844 2.46875L0.636719 1.10547L1.66406 2.1875L2.86719 3.39844C2.93359 3.46875 3.01953 3.5 3.11328 3.5C3.33594 3.5 3.5 3.35547 3.5 3.13672C3.5 3.03125 3.46484 2.9375 3.39453 2.86719L2.1875 1.66406L1.10547 0.636719L2.47266 0.714844L2.79688 0.714844C3.00391 0.714844 3.16406 0.570312 3.16406 0.359375C3.16406 0.148438 3.00781 0 2.79688 0L0.628906 0C0.230469 0 0 0.230469 0 0.628906L0 2.79688C0 3 0.152344 3.16016 0.359375 3.16016ZM4.64453 7.45312L6.8125 7.45312C7.21094 7.45312 7.44531 7.22266 7.44531 6.82422L7.44531 4.65625C7.44531 4.45312 7.29297 4.29297 7.08203 4.29297C6.87891 4.29297 6.72656 4.44922 6.72656 4.65625L6.72656 4.98438L6.80859 6.34766L5.77734 5.26562L4.57812 4.05469C4.51172 3.98438 4.42188 3.95312 4.32812 3.95312C4.10938 3.95312 3.94141 4.09766 3.94141 4.31641C3.94141 4.42188 3.98047 4.51562 4.05078 4.58594L5.25391 5.78906L6.33984 6.81641L4.97266 6.73828L4.64453 6.73828C4.4375 6.73828 4.27734 6.88281 4.27734 7.09375C4.27734 7.30469 4.4375 7.45312 4.64453 7.45312Z" fill="#ffffff"/>
 </g>
</svg>
