<?xml version="1.0" encoding="UTF-8"?>
<!--Generator: Apple Native CoreSVG 175.5-->
<!DOCTYPE svg
PUBLIC "-//W3C//DTD SVG 1.1//EN"
       "http://www.w3.org/Graphics/SVG/1.1/DTD/svg11.dtd">
<svg version="1.1" xmlns="http://www.w3.org/2000/svg" xmlns:xlink="http://www.w3.org/1999/xlink" width="18.4355" height="11.8711">
 <g>
  <rect height="11.8711" opacity="0" width="18.4355" x="0" y="0"/>
  <path d="" fill="#000000"/>
  <path d="" fill="#000000"/>
  <path d="" fill="#000000"/>
  <path d="M0.714562 11.8624L2.36709 11.8624C2.79407 11.8624 3.08164 11.5633 3.08164 11.1161L3.08164 8.05215C3.08164 7.6049 2.79407 7.31304 2.36709 7.31304L0.714562 7.31304C0.287567 7.31304 0 7.6049 0 8.05215L0 11.1161C0 11.5633 0.287567 11.8624 0.714562 11.8624ZM5.83835 11.8624L7.48215 11.8624C7.91062 11.8624 8.20395 11.5633 8.20395 11.1161L8.20395 5.9139C8.20395 5.47538 7.91062 5.16755 7.48215 5.16755L5.83835 5.16755C5.40988 5.16755 5.11507 5.47538 5.11507 5.9139L5.11507 11.1161C5.11507 11.5633 5.40988 11.8624 5.83835 11.8624ZM10.9534 11.8624L12.5972 11.8624C13.0257 11.8624 13.3205 11.5633 13.3205 11.1161L13.3205 3.44567C13.3205 2.99989 13.0257 2.69932 12.5972 2.69932L10.9534 2.69932C10.5249 2.69932 10.2316 2.99989 10.2316 3.44567L10.2316 11.1161C10.2316 11.5633 10.5249 11.8624 10.9534 11.8624ZM16.0684 11.8624L17.7268 11.8624C18.1552 11.8624 18.4355 11.5633 18.4355 11.1161L18.4355 0.746354C18.4355 0.299113 18.1552 0 17.7268 0L16.0684 0C15.6415 0 15.3539 0.299113 15.3539 0.746354L15.3539 11.1161C15.3539 11.5633 15.6415 11.8624 16.0684 11.8624Z" fill="#000000" fill-opacity="0.1"/>
 </g>
</svg>
