<?xml version="1.0" encoding="UTF-8"?>
<!--Generator: Apple Native CoreSVG 175.5-->
<!DOCTYPE svg
PUBLIC "-//W3C//DTD SVG 1.1//EN"
       "http://www.w3.org/Graphics/SVG/1.1/DTD/svg11.dtd">
<svg version="1.1" xmlns="http://www.w3.org/2000/svg" xmlns:xlink="http://www.w3.org/1999/xlink" width="7.61328" height="7.83203">
 <g>
  <rect height="7.83203" opacity="0" width="7.61328" x="0" y="0"/>
  <path d="M0.703125 3.53906L2.87109 3.53906C3.26953 3.53906 3.5 3.30469 3.5 2.90625L3.5 0.742188C3.5 0.539062 3.34766 0.378906 3.14062 0.378906C2.93359 0.378906 2.78516 0.535156 2.78516 0.742188L2.78516 1.07031L2.86719 2.43359L1.83594 1.35156L0.636719 0.140625C0.570312 0.0703125 0.480469 0.0351562 0.386719 0.0351562C0.164062 0.0351562 0 0.183594 0 0.402344C0 0.503906 0.0390625 0.601562 0.109375 0.671875L1.3125 1.875L2.39453 2.90234L1.03125 2.82422L0.703125 2.82422C0.496094 2.82422 0.335938 2.96875 0.335938 3.17969C0.335938 3.38672 0.492188 3.53906 0.703125 3.53906ZM4.44922 7.50391C4.65625 7.50391 4.80469 7.35156 4.80469 7.14062L4.80469 6.76953L4.72266 5.41016L5.75391 6.49219L6.98047 7.72656C7.04688 7.79688 7.13281 7.83203 7.23047 7.83203C7.44922 7.83203 7.61328 7.68359 7.61328 7.46484C7.61328 7.36328 7.57812 7.26562 7.50781 7.19531L6.27734 5.96484L5.19141 4.9375L6.55859 5.01562L6.92969 5.01562C7.13672 5.01562 7.29688 4.87109 7.29688 4.66406C7.29688 4.45312 7.14062 4.30469 6.92969 4.30469L4.71875 4.30469C4.32031 4.30469 4.08984 4.53516 4.08984 4.93359L4.08984 7.14062C4.08984 7.34766 4.23828 7.50391 4.44922 7.50391Z" fill="#ffffff"/>
 </g>
</svg>
